<svg width="154" height="119" viewBox="0 0 154 119" fill="none" xmlns="http://www.w3.org/2000/svg">
<g clip-path="url(#clip0_4102_79)">
<path d="M77.0241 82.7184L0 41.383L77.0241 0L154.048 41.383L77.0241 82.766V82.7184ZM3.81499 41.383L77.0241 80.6683L150.185 41.383L77.0241 2.05008L3.81499 41.383Z" fill="#606060"/>
<path d="M77.0241 100.883L0 59.5L77.0241 18.117L154.048 59.4523L77.0241 100.835V100.883ZM3.81499 59.5L77.0241 98.7852L150.185 59.4523L77.0241 20.1671L3.81499 59.5Z" fill="#606060"/>
<path d="M77.0241 119L0 77.617L77.0241 36.2816L154.048 77.6647L77.0241 119.048V119ZM3.81499 77.617L77.0241 116.95L150.185 77.617L77.0241 38.284L3.81499 77.617Z" fill="#606060"/>
</g>
<defs>
<clipPath id="clip0_4102_79">
<rect width="154" height="119" fill="white"/>
</clipPath>
</defs>
</svg>
