<svg width="53" height="41" viewBox="0 0 53 41" fill="none" xmlns="http://www.w3.org/2000/svg">
<g clip-path="url(#clip0_4102_79)">
<path d="M26.5083 28.4996L0 14.258L26.5083 0L53.0166 14.258L26.5083 28.516V28.4996ZM1.31295 14.258L26.5083 27.7933L51.6871 14.258L26.5083 0.70633L1.31295 14.258Z" fill="white"/>
<path d="M26.5083 34.758L0 20.5L26.5083 6.242L53.0166 20.4836L26.5083 34.7416V34.758ZM1.31295 20.5L26.5083 34.0353L51.6871 20.4836L26.5083 6.94833L1.31295 20.5Z" fill="white"/>
<path d="M26.5083 41L0 26.742L26.5083 12.5004L53.0166 26.7584L26.5083 41.0165V41ZM1.31295 26.742L26.5083 40.2937L51.6871 26.742L26.5083 13.1903L1.31295 26.742Z" fill="white"/>
</g>
<defs>
<clipPath id="clip0_4102_79">
<rect width="53" height="41" fill="white"/>
</clipPath>
</defs>
</svg>
