<svg width="154" height="119" fill="none" xmlns="http://www.w3.org/2000/svg"><g clip-path="url(#a)" fill="#606060"><path d="M77.024 82.718 0 41.383 77.024 0l77.024 41.383-77.024 41.383v-.048ZM3.815 41.383l73.21 39.285 73.16-39.285L77.025 2.05 3.814 41.383Z"/><path d="M77.024 100.883 0 59.5l77.024-41.383 77.024 41.335-77.024 41.383v.048ZM3.815 59.5l73.21 39.285 73.16-39.333-73.16-39.285L3.814 59.5Z"/><path d="M77.024 119 0 77.617l77.024-41.335 77.024 41.383-77.024 41.383V119ZM3.815 77.617l73.21 39.333 73.16-39.333-73.16-39.333-73.21 39.333Z"/></g><defs><clipPath id="a"><path fill="#fff" d="M0 0h154v119H0z"/></clipPath></defs></svg>